<?xml version="1.0" encoding="UTF-8"?>
<svg width="25px" height="25px" viewBox="0 0 25 25" version="1.1" xmlns="http://www.w3.org/2000/svg" xmlns:xlink="http://www.w3.org/1999/xlink">
    <!-- Generator: Sketch 55.1 (78136) - https://sketchapp.com -->
    <title>对话默认</title>
    <desc>Created with Sketch.</desc>
    <g id="页面1" stroke="none" stroke-width="1" fill="none" fill-rule="evenodd">
        <g id="对话默认" transform="translate(1.000000, 0.000000)">
            <path d="M3,5 L3,3.01928711 C3,0.880782309 3.83775531,1.77635684e-15 6,1.77635684e-15 L20.9682617,1.77635684e-15 C23.1247273,1.77635684e-15 24,0.873376072 24,3.01928711 L24,14.947876 C23.9987056,17.0908265 23.1281564,18.0030518 20.9682617,18.0030518 C19.6985872,17.8664617 19.06375,17.7981667 19.06375,17.7981667 C18.3661589,17.913631 18.1176953,13.6475755 18.3183594,5 C17.8100586,5 3,5.24182129 3,5 Z M20.6416961,2 L6.38949585,2 C5.3340698,2 5,2.33574761 5,3.37191963 L5,4.33335277 C5,5.36941205 5.33350365,5.7043457 6.39025553,5.70434599 L9.42504377,5.70665203 C9.7843522,5.70653815 18.6509386,5.70350046 18.6921387,5.70434599 C17.8434146,12.3836051 17.8434146,15.8154898 18.6921387,16 C18.6921387,16 19.3419912,16 20.6416961,16 C21.5468093,15.7990661 21.9995773,15.3487487 22,14.6490479 L22,3.39986038 C22,2.33997353 21.6741549,2 20.6416961,2 Z" id="形状结合" fill="#75777A" fill-rule="nonzero"></path>
            <path d="M17.0133057,5 C18.6368557,5 19,5.49385638 19,7.06640625 L19,19.017334 C18.99905,20.5903481 18.6382807,21.0223601 17.0133057,21.0223601 L13.9260851,21.0223601 C13.6159101,21.0223601 13.2999171,20.9684068 13.0814171,21.1819801 L10.3493652,23.6809082 C9.90001524,24.1173407 9.17136523,24.1256979 8.71299024,23.6985512 L5.95964241,21.2686291 C5.74160968,21.0658584 5.72631417,21.024571 5.42536071,21.0246664 L2.02148438,21.0223601 C0.397934384,21.0223601 0,20.5903481 0,19.017334 L0,7.06640625 C0,5.49385638 0.397934361,5 2.02148438,5 L17.0133057,5 Z" id="形状结合" stroke="#75777A" stroke-width="2" fill-rule="nonzero"></path>
            <circle id="椭圆形" fill="#656D77" cx="7" cy="13" r="1"></circle>
            <circle id="椭圆形备份-7" fill="#656D77" cx="10" cy="13" r="1"></circle>
            <circle id="椭圆形备份-8" fill="#656D77" cx="13" cy="13" r="1"></circle>
        </g>
    </g>
</svg>