<?xml version="1.0" standalone="no"?><!DOCTYPE svg PUBLIC "-//W3C//DTD SVG 1.1//EN" "http://www.w3.org/Graphics/SVG/1.1/DTD/svg11.dtd"><svg t="1700112794557" class="icon" viewBox="0 0 1024 1024" version="1.1" xmlns="http://www.w3.org/2000/svg" p-id="12729" xmlns:xlink="http://www.w3.org/1999/xlink" width="200" height="200"><path d="M397.312 331.776c-167.936 0-303.104 114.688-303.104 253.952 0 73.728 36.864 135.168 94.208 184.32l-24.576 86.016c-4.096 16.384 12.288 32.768 28.672 28.672l126.976-49.152c24.576 4.096 49.152 8.192 77.824 8.192 167.936 0 303.104-114.688 303.104-253.952S565.248 331.776 397.312 331.776zM397.312 802.816c-20.48 0-45.056-4.096-69.632-8.192-4.096 0-4.096 0-8.192 0-4.096 0-8.192 0-12.288 4.096l-98.304 36.864L225.28 778.24c4.096-16.384 0-28.672-12.288-40.96-49.152-40.96-77.824-94.208-77.824-155.648C135.168 466.944 253.952 368.64 397.312 368.64c147.456 0 262.144 98.304 262.144 217.088S544.768 802.816 397.312 802.816z" p-id="12730" fill="#8a8a8a"></path><path d="M925.696 397.312c0-139.264-135.168-253.952-303.104-253.952-122.88 0-229.376 65.536-278.528 155.648 16.384 0 28.672-4.096 45.056-4.096 45.056-65.536 131.072-114.688 233.472-114.688 147.456 0 262.144 98.304 262.144 217.088 0 57.344-28.672 114.688-77.824 155.648-12.288 8.192-16.384 24.576-12.288 36.864l16.384 57.344-77.824-28.672c0 12.288-4.096 24.576-8.192 36.864l102.4 40.96c16.384 8.192 32.768-8.192 28.672-28.672l-24.576-86.016C888.832 536.576 925.696 471.04 925.696 397.312z" p-id="12731" fill="#8a8a8a"></path></svg>