<?xml version="1.0" encoding="UTF-8"?>
<svg width="24px" height="24px" viewBox="0 0 24 24" version="1.1" xmlns="http://www.w3.org/2000/svg" xmlns:xlink="http://www.w3.org/1999/xlink">
    <!-- Generator: Sketch 55.1 (78136) - https://sketchapp.com -->
    <title>对话选中</title>
    <desc>Created with Sketch.</desc>
    <g id="页面1" stroke="none" stroke-width="1" fill="none" fill-rule="evenodd">
        <g id="对话选中">
            <path d="M3,3 L3,2.89013672 C3,0.751631919 3.83775531,1.77635684e-15 6,1.77635684e-15 L21.0219727,1.77635684e-15 C23.1784382,1.77635684e-15 24,0.927697361 24,3.0736084 L24,14.9748535 C23.9987056,17.117804 23.1818673,17.9858398 21.0219727,17.9858398 L20.9997739,17.9837123 C20.9996565,15.6537997 20.9997318,14.2732426 21,13.842041 L21,4.19988033 C21,3.29140589 20.7124896,3 19.8014966,3 L7.22602575,3 C6.50550938,3 4.06683519,3 2.99999908,3 Z" id="形状结合" fill="#017A61" fill-rule="nonzero"></path>
            <path d="M17.0083008,5 C18.6318508,5 19,5.48042865 19,7.05297852 L19,19.0174561 C18.99905,20.5904702 18.6332758,21.0223601 17.0083008,21.0223601 L13.9260851,21.0223601 C13.6159101,21.0223601 13.2999171,20.9684068 13.0814171,21.1819801 L10.3493652,23.6809082 C9.90001524,24.1173407 9.17136523,24.1256979 8.71299024,23.6985512 L5.95964241,21.2686291 C5.74160968,21.0658584 5.72631417,21.024571 5.42536071,21.0246664 L2.03662109,21.0223601 C0.413071102,21.0223601 0,20.5904702 0,19.0174561 L0,7.05297852 C0,5.48042865 0.41307108,5 2.03662109,5 L17.0083008,5 Z" id="形状结合" fill="#017A61" fill-rule="nonzero"></path>
            <circle id="椭圆形" fill="#FFFFFF" cx="7" cy="13" r="1"></circle>
            <circle id="椭圆形备份-7" fill="#FFFFFF" cx="10" cy="13" r="1"></circle>
            <circle id="椭圆形备份-8" fill="#FFFFFF" cx="13" cy="13" r="1"></circle>
        </g>
    </g>
</svg>