<?xml version="1.0" encoding="UTF-8"?>
<svg width="18px" height="21px" viewBox="0 0 18 21" version="1.1" xmlns="http://www.w3.org/2000/svg" xmlns:xlink="http://www.w3.org/1999/xlink">
    <!-- Generator: Sketch 55.1 (78136) - https://sketchapp.com -->
    <title>复制默认</title>
    <desc>Created with Sketch.</desc>
    <g id="页面1" stroke="none" stroke-width="1" fill="none" fill-rule="evenodd">
        <g id="复制默认" transform="translate(1.000000, 1.000000)">
            <path d="M5.03728661,0 C7.43701669,0 11.0912545,0 16,0 C16,3.22160993 16,4.8324149 16,4.8324149 C16,6.91206263 16,9.18078865 16,13.7814501 C16,14.7415729 15.8046026,15 14.9718071,15 C14.4166101,15 13.4260077,14.9433962 12,14.8301887 L12,8.6676591 L8,4.13836477 L4,4 C4,2.73362745 4,1.83035077 4,1.29016998 C4,0.269653517 4.20259426,0 5.03728661,0 Z" id="矩形" stroke="#75777A" stroke-width="2" fill-rule="nonzero"></path>
            <path d="M1.03728661,4 C3.43701669,4 5.64336107,4 7.65631975,4 L12,8.6676591 C12,11.6764037 12,14.7143332 12,17.7814475 C12,18.7415723 11.8046026,19 10.9718071,19 C10.1390115,19 1.83468495,19 1.05882728,19 C0.282969599,19 0,18.7285327 0,17.7806849 C0,17.0103544 0,12.8468184 0,5.29014022 C0,4.26962154 0.20259426,4 1.03728661,4 Z" id="矩形" stroke="#75777A" stroke-width="2" fill-rule="nonzero"></path>
            <rect id="矩形" fill="#75777A" x="3" y="11" width="4" height="2" rx="1"></rect>
            <rect id="矩形" fill="#75777A" x="3" y="14" width="4" height="2" rx="1"></rect>
            <path d="M7,4 C7,5.80911779 7,6.9412494 7,7.39639485 C7,8.08160012 7.12980374,8.48670482 7.36728559,8.6966619 C7.60476744,8.90661898 7.78602587,9 8.33611387,9 C8.80770701,9 9.69566905,9 11,9" id="路径-2" stroke="#75777A" stroke-width="2" stroke-linecap="round" stroke-linejoin="round"></path>
        </g>
    </g>
</svg>