<?xml version="1.0" standalone="no"?><!DOCTYPE svg PUBLIC "-//W3C//DTD SVG 1.1//EN" "http://www.w3.org/Graphics/SVG/1.1/DTD/svg11.dtd"><svg t="1700113047377" class="icon" viewBox="0 0 1024 1024" version="1.1" xmlns="http://www.w3.org/2000/svg" p-id="15551" xmlns:xlink="http://www.w3.org/1999/xlink" width="200" height="200"><path d="M267.46 841.92H145.38a27.17 27.17 0 0 1-27.15-27.14V188.09a27.18 27.18 0 0 1 27.15-27.15h122.08a27.18 27.18 0 0 1 27.15 27.15v626.69a27.17 27.17 0 0 1-27.15 27.14z m-122.08-665a11.16 11.16 0 0 0-11.15 11.15v626.71a11.16 11.16 0 0 0 11.15 11.14h122.08a11.16 11.16 0 0 0 11.15-11.14V188.09a11.16 11.16 0 0 0-11.15-11.15z" fill="#8a8a8a" p-id="15552"></path><path d="M256.29 440.39h-96.9V279.73h96.9z m-80.9-16h64.9V295.73h-64.9zM479.24 841.92H357.15A27.17 27.17 0 0 1 330 814.78V188.09a27.18 27.18 0 0 1 27.15-27.15h122.09a27.18 27.18 0 0 1 27.14 27.15v626.69a27.17 27.17 0 0 1-27.14 27.14z m-122.09-665A11.16 11.16 0 0 0 346 188.09v626.69a11.16 11.16 0 0 0 11.15 11.14h122.09a11.16 11.16 0 0 0 11.14-11.14V188.09a11.16 11.16 0 0 0-11.14-11.15z" fill="#8a8a8a" p-id="15553"></path><path d="M468.06 440.39h-96.9V279.73h96.9z m-80.9-16h64.9V295.73h-64.9zM782 841.94a27.32 27.32 0 0 1-10-1.94 27 27 0 0 1-14.94-14.43l-249.2-575a27.18 27.18 0 0 1 14.14-35.7l112-48.55a27.21 27.21 0 0 1 35.7 14.12l249.21 575a27.19 27.19 0 0 1-14.11 35.71l-112 48.54a26.89 26.89 0 0 1-10.8 2.25zM644.76 180.09a11 11 0 0 0-4.39 0.91l-112 48.55a11.15 11.15 0 0 0-5.79 14.66l249.2 575a11.21 11.21 0 0 0 14.65 5.79l112-48.54a11.18 11.18 0 0 0 5.8-14.67L655 186.8a11.28 11.28 0 0 0-10.27-6.71z" fill="#8a8a8a" p-id="15554"></path><path d="M646 465.7l-63.92-147.41L671 279.76l63.89 147.41z m-42.87-139.09l51.16 118.05 59.55-25.81-51.17-118z" fill="#8a8a8a" p-id="15555"></path></svg>