<?xml version="1.0" encoding="UTF-8"?>
<svg width="25px" height="27px" viewBox="0 0 25 27" version="1.1" xmlns="http://www.w3.org/2000/svg" xmlns:xlink="http://www.w3.org/1999/xlink">
    <!-- Generator: Sketch 55.1 (78136) - https://sketchapp.com -->
    <title>文档默认</title>
    <desc>Created with Sketch.</desc>
    <g id="页面1" stroke="none" stroke-width="1" fill="none" fill-rule="evenodd">
        <g id="文档默认" transform="translate(1.000000, 1.000000)" fill-rule="nonzero">
            <path d="M1.98813266,0.98764377 C13.8243466,0.98764377 20.0600887,1.00797097 21.0292969,1 C22.519043,0.98764377 23,1.55114746 23,3.10839844 C23,4.36454754 23,11.0115202 23,23.0493164 C23,24.5863037 22.6254883,25 21.0292969,25 C19.4331055,25 3.51647949,25 2.02941895,25 C0.542358398,25 0,24.5654297 0,23.0480957 C0,21.8149349 0,15.1498621 0,3.05297852 C0,1.41931152 0.388305664,0.98764377 1.98813266,0.98764377 Z" id="矩形" stroke="#656D77" stroke-width="2"></path>
            <path d="M6,25 C5.46666668,25 5,24.7052631 5,24.3684211 L5,1.63157895 C5,1.29473685 5.46666668,1 6,1 C6.53333332,1 7,1.29473685 7,1.63157895 L7,24.3684211 C7,24.7052631 6.53333332,25 6,25 Z M16.3478261,8 L11.6521739,8 C11.3043478,8 11,7.53333332 11,7 C11,6.46666668 11.3043478,6 11.6521739,6 L16.3478261,6 C16.6956522,6 17,6.46666668 17,7 C17,7.53333332 16.6956522,8 16.3478261,8 L16.3478261,8 Z M16.3478261,13 L11.6521739,13 C11.3043478,13 11,12.5333333 11,12 C11,11.4666667 11.3043478,11 11.6521739,11 L16.3478261,11 C16.6956522,11 17,11.4666667 17,12 C17,12.5333333 16.6956522,13 16.3478261,13 L16.3478261,13 Z" id="形状" fill="#656D77"></path>
        </g>
    </g>
</svg>