<?xml version="1.0" standalone="no"?><!DOCTYPE svg PUBLIC "-//W3C//DTD SVG 1.1//EN" "http://www.w3.org/Graphics/SVG/1.1/DTD/svg11.dtd"><svg t="1701055428464" class="icon" viewBox="0 0 1024 1024" version="1.1" xmlns="http://www.w3.org/2000/svg" p-id="6477" xmlns:xlink="http://www.w3.org/1999/xlink" width="200" height="200"><path d="M531.135405 304.426901c-4.911762-4.911762-11.665434-7.981613-19.135405-7.981613-7.469971 0-14.223643 3.069851-19.135405 7.981613L227.117818 570.173678c-10.539822 10.539822-10.539822 27.526332 0 38.066154 5.218747 5.218747 12.177076 7.879285 19.033076 7.879285 6.856001 0 13.81433-2.660538 19.033077-7.879285L485.087639 388.336165v423.434795c0 14.837614 12.074748 26.912361 26.912361 26.912362s26.912361-12.074748 26.912361-26.912362V388.336165l219.801339 219.801339c10.539822 10.539822 27.526332 10.539822 38.066154 0 10.539822-10.539822 10.539822-27.526332 0-38.066154L531.135405 304.426901zM841.497352 185.21435h-658.994704c-14.837614 0-26.912361 12.074748-26.912361 26.912361s12.074748 26.912361 26.912361 26.912362h658.994704c14.837614 0 26.912361-12.074748 26.912361-26.912362S856.334966 185.21435 841.497352 185.21435z" fill="#007B61" p-id="6478"></path></svg>