<?xml version="1.0" encoding="UTF-8"?>
<svg width="24px" height="24px" viewBox="0 0 24 24" version="1.1" xmlns="http://www.w3.org/2000/svg" xmlns:xlink="http://www.w3.org/1999/xlink">
    <!-- Generator: Sketch 55.1 (78136) - https://sketchapp.com -->
    <title>历史记录</title>
    <desc>Created with Sketch.</desc>
    <g id="页面1" stroke="none" stroke-width="1" fill="none" fill-rule="evenodd">
        <g id="历史记录" fill="#656D77" fill-rule="nonzero">
            <path d="M15.9084211,17 C15.5831579,16.9946406 15.2831579,16.8499369 15.1157895,16.6141236 L13.1389474,13.8540353 C13.0473684,13.7280895 13,13.5833859 13,13.4360025 L13,2.54571248 C13,1.14155107 14.3452632,0 16,0 C17.6547368,0 19,1.14155107 19,2.54571248 L19,13.4386822 C19,13.5941047 18.9463158,13.7468474 18.8452632,13.8781526 L16.7168421,16.6382409 C16.5431579,16.8633354 16.2431579,17 15.9242105,17 L15.9084211,17 Z M15.0151367,13 L15.9611714,15 L17.0151367,13 L17.0151367,3.02368164 C17.0151367,2.50650005 16.3861906,1.99304199 16.0151367,1.99304199 C15.6440828,1.99304199 15.0151367,2.50650005 15.0151367,3.02368164 L15.0151367,13 Z" id="形状"></path>
            <path d="M16.2231334,18 C15.7932672,18 15.4462667,17.6424283 15.4462667,17.1994663 L15.4462667,15.9693129 C15.4462667,15.5263509 15.7932672,15.1687792 16.2231334,15.1687792 C16.6529996,15.1687792 17,15.5263509 17,15.9693129 L17,17.1994663 C17,17.6424283 16.65041,18 16.2231334,18 Z M12.2,18 L5.8,18 C5.35733333,18 5,17.5533333 5,17 C5,16.4466667 5.35733333,16 5.8,16 L12.2,16 C12.6426667,16 13,16.4466667 13,17 C13,17.5533333 12.6426667,18 12.2,18 Z M11.3,15 L5.7,15 C5.31266667,15 5,14.5533333 5,14 C5,13.4466667 5.31266667,13 5.7,13 L11.3,13 C11.6873333,13 12,13.4466667 12,14 C12,14.5533333 11.6873333,15 11.3,15 Z M8.20205587,12 L5.80312324,12 C5.36016127,12 5.00258956,11.5533333 5.00258956,11 C5.00258956,10.4466667 5.36016127,10 5.80312324,10 L8.20205587,10 C8.64501784,10 9.00258956,10.4466667 9.00258956,11 C9.00258956,11.5533333 8.6423494,12 8.20205587,12 Z" id="形状"></path>
            <path d="M10.9997559,4 C11.7314299,4 12,4.48614403 12,4.97253319 C12,5.45892235 11.7521467,6 10.9997559,6 C8.41070557,6 6.1713384,6.00287672 2.94278979,6.00287672 C1.91294458,6.00287672 2.00193216,5.92929613 2.00193216,6.55084393 L2.00193216,21.5329915 C2.00193216,21.9984698 1.99850389,21.9959663 2.98210082,21.9959663 L21.0729713,21.9959663 C22.098681,21.9959663 21.9972333,22.076452 21.9972333,21.5339061 L21.9972333,6.59236954 C21.9972333,6.013319 21.9883995,6.03807252 21.0788412,6.01211613 C20.6542358,6 19.9999795,5.68180464 19.9999795,5.02471759 C19.9999795,4.24499413 20.5515747,4 21.0788412,4 C22.9872582,4 24,4.80506369 24,6.58992759 L24,21.5379202 C24,23.3265136 23.1442562,24.0001801 21.148125,24.0001801 L2.90824219,24.0001801 C0.973701452,24.0001801 0,23.2946496 0,21.5370051 L0,6.54838404 C0,4.70322342 0.85688628,4 2.86860735,4 C6.97998188,4 10.1976929,4 10.9997559,4 Z" id="路径"></path>
        </g>
    </g>
</svg>