<?xml version="1.0" encoding="UTF-8"?>
<svg width="25px" height="25px" viewBox="0 0 25 25" version="1.1" xmlns="http://www.w3.org/2000/svg" xmlns:xlink="http://www.w3.org/1999/xlink">
    <!-- Generator: Sketch 55.1 (78136) - https://sketchapp.com -->
    <title>加入团队数白色</title>
    <desc>Created with Sketch.</desc>
    <g id="页面1" stroke="none" stroke-width="1" fill="none" fill-rule="evenodd">
        <g id="加入团队数白色" transform="translate(1.000000, 1.000000)">
            <path d="M22.069458,19.0065918 C22.069458,11.6865005 19.2835621,10.7341559 16.3795166,9.37133789 C20.9174805,6.59008789 18.9130838,3.11254883 16.1322897,0.447285768 C18.3621818,-0.208885869 20.1485566,1.27264435 20.7189941,3.59448242 C21.1857157,5.66394678 20.7995057,7.9680221 18.8289034,8.82609271 C22.4589602,9.73463804 24,13.1669204 24,17.1039502 C24,18.1453857 22.5986328,19.0065918 22.069458,19.0065918 Z" id="路径" fill="#FFFFFF" fill-rule="nonzero"></path>
            <path d="M12,11 C15.6300568,11.7571211 19.0075684,13.9794959 19.0075684,21.0459596 C19.0075684,22.913525 17.0995941,22.9675293 9.26904297,22.9675293 C1.33477589,22.9675293 0,22.913525 0,21.0459596 C0,14.121582 3.55883789,11.5 6.95397949,11 C8.82821843,11 11.1802979,11 12,11 Z" id="路径" stroke="#FFFFFF" stroke-width="2" fill-rule="nonzero"></path>
            <circle id="椭圆形" stroke="#FFFFFF" stroke-width="2" cx="9.5" cy="5.5" r="5.5"></circle>
        </g>
    </g>
</svg>