<?xml version="1.0" encoding="UTF-8"?>
<svg width="26px" height="23px" viewBox="0 0 26 23" version="1.1" xmlns="http://www.w3.org/2000/svg" xmlns:xlink="http://www.w3.org/1999/xlink">
    <!-- Generator: Sketch 55.1 (78136) - https://sketchapp.com -->
    <title>最近的伙伴</title>
    <desc>Created with Sketch.</desc>
    <g id="页面1" stroke="none" stroke-width="1" fill="none" fill-rule="evenodd">
        <g id="最近的伙伴" transform="translate(1.000000, 1.000000)" stroke="#656D77" stroke-width="2">
            <path d="M13.5759296,10 C15.8676842,10.6959107 18,12.738615 18,19.2337819 C18,20.9503617 16.7954435,21 11.8518014,21 C6.84268068,21 6,20.9503617 6,19.2337819 C6,12.869214 8.24679211,10.4595769 10.3902383,10 C11.5734968,10 13.0584291,10 13.5759296,10 Z" id="路径" fill-rule="nonzero"></path>
            <ellipse id="椭圆形" cx="12" cy="5.5" rx="4" ry="4.5"></ellipse>
            <path d="M4.81234359,-1.42108547e-14 C1.87627705,2.38350786 0,6.02173125 0,10.0981826 C0,12.854852 0.858028675,15.4111181 2.32158868,17.5144835" id="形状"></path>
            <path d="M23.8123436,-1.42108547e-14 C20.876277,2.38350786 19,6.02173125 19,10.0981826 C19,12.854852 19.8580287,15.4111181 21.3215887,17.5144835" id="形状" transform="translate(21.406172, 8.757242) scale(-1, 1) translate(-21.406172, -8.757242) "></path>
        </g>
    </g>
</svg>