<?xml version="1.0" encoding="UTF-8"?>
<svg width="25px" height="23px" viewBox="0 0 25 23" version="1.1" xmlns="http://www.w3.org/2000/svg" xmlns:xlink="http://www.w3.org/1999/xlink">
    <!-- Generator: Sketch 55.1 (78136) - https://sketchapp.com -->
    <title>加入团队数选中</title>
    <desc>Created with Sketch.</desc>
    <g id="页面1" stroke="none" stroke-width="1" fill="none" fill-rule="evenodd">
        <g id="加入团队数选中" fill="#017A61">
            <path d="M22.0535386,19.0065918 C22.0535386,11.6865005 18.9040455,10.9195759 16,9.55675789 C19.8289034,6.80905331 19.9130838,3.11254883 17.1322897,0.447285768 C19.3621818,-0.208885869 21.4831011,1.29328141 22.0535386,3.61511949 C22.0535386,5.5 21.7995057,7.9680221 19.8289034,8.82609271 C23.4589602,9.73463804 25,13.1669204 25,17.1039502 C25,18.1453857 22.5827134,19.0065918 22.0535386,19.0065918 Z" id="路径" fill-rule="nonzero"></path>
            <path d="M12.6265494,9.9675293 C16.4461403,10.7899693 20,13.2040743 20,20.8801806 C20,22.9088659 17.9924058,22.9675293 9.75300238,22.9675293 C1.40446781,22.9675293 0,22.9088659 0,20.8801806 C0,13.3584185 3.74465352,10.5106656 7.31706377,9.9675293 C9.28916131,9.9675293 11.7640486,9.9675293 12.6265494,9.9675293 Z" id="路径" fill-rule="nonzero"></path>
            <path d="M10.0041282,11 C13.3178367,11 16,8.53756612 16,5.5 C16,2.46243388 13.3137085,0 10,0 C6.6862915,0 4,2.46243388 4,5.5 C4,8.53756612 6.6904197,11 10.0041282,11 Z" id="椭圆形"></path>
        </g>
    </g>
</svg>