<?xml version="1.0" encoding="UTF-8"?>
<svg width="16px" height="16px" viewBox="0 0 16 16" version="1.1" xmlns="http://www.w3.org/2000/svg" xmlns:xlink="http://www.w3.org/1999/xlink">
    <!-- Generator: Sketch 55.1 (78136) - https://sketchapp.com -->
    <title>形状结合</title>
    <desc>Created with Sketch.</desc>
    <g id="页面1" stroke="none" stroke-width="1" fill="none" fill-rule="evenodd">
        <path d="M14.0140599,0 C15.3812599,0 16,0.696682539 16,2.02093506 L16,11.0024719 C15.9992,12.3271154 15.3824599,12.9990976 14.0140599,12.9990976 L11.7272295,12.9990976 C11.4660295,12.9990976 11.1999302,12.9536632 11.0159302,13.1335144 L8.72999999,15.7198003 C8.3516,16.0873224 7.73799999,16.0943601 7.352,15.7346576 L5.01864624,13.2064819 C4.83503973,13.0357277 4.8221593,13.0009594 4.5687248,13.0010397 L2.01220703,12.9990976 C0.645007039,12.9990976 0,12.3271154 0,11.0024719 L0,1.99740601 C0,0.673153487 0.64500702,0 2.01220703,0 L14.0140599,0 Z M5,8 C5.55228475,8 6,7.55228475 6,7 C6,6.44771525 5.55228475,6 5,6 C4.44771525,6 4,6.44771525 4,7 C4,7.55228475 4.44771525,8 5,8 Z M8,8 C8.55228475,8 9,7.55228475 9,7 C9,6.44771525 8.55228475,6 8,6 C7.44771525,6 7,6.44771525 7,7 C7,7.55228475 7.44771525,8 8,8 Z M11,8 C11.5522847,8 12,7.55228475 12,7 C12,6.44771525 11.5522847,6 11,6 C10.4477153,6 10,6.44771525 10,7 C10,7.55228475 10.4477153,8 11,8 Z" id="形状结合" fill="#656D77" fill-rule="nonzero"></path>
    </g>
</svg>