<?xml version="1.0" encoding="UTF-8"?>
<svg width="16px" height="16px" viewBox="0 0 16 16" version="1.1" xmlns="http://www.w3.org/2000/svg" xmlns:xlink="http://www.w3.org/1999/xlink">
    <!-- Generator: Sketch 55.1 (78136) - https://sketchapp.com -->
    <title>形状</title>
    <desc>Created with Sketch.</desc>
    <g id="页面1" stroke="none" stroke-width="1" fill="none" fill-rule="evenodd">
        <path d="M15.3729916,4.8961312 C13.7780046,1.10863542 9.57236429,-0.854053648 5.64481067,0.356181706 C1.71725705,1.56641706 -0.654150454,5.55575592 0.159443423,9.58403001 C0.973037301,13.6123041 4.70688217,16.3686786 8.79630162,15.959875 C12.8857211,15.5510713 16,12.1101177 16,8.00051143 C16.0014101,6.9341325 15.7881779,5.87837505 15.3729916,4.8961312 L15.3729916,4.8961312 Z M5.20805604,10.7919719 C5.01670385,10.6006374 4.95120747,10.3219825 5.03725174,10.0651577 L6.19050182,6.63654639 C6.26113518,6.42723417 6.42680251,6.26029804 6.63613409,6.19095534 L10.0650625,5.03781192 C10.3219111,4.95049148 10.6005918,5.01726593 10.791944,5.20860042 C10.9832961,5.3999349 11.0487925,5.67858983 10.9627483,5.93541464 L9.80949818,9.36402593 C9.73886482,9.57333815 9.57319749,9.74027428 9.36386591,9.80961698 L5.93493749,10.9627604 C5.86045141,10.9884429 5.78339684,11 5.70762651,11 C5.52269554,11 5.34418578,10.9280891 5.20805604,10.7919719 Z" id="形状" fill="#656D77" fill-rule="nonzero"></path>
    </g>
</svg>