<?xml version="1.0" encoding="UTF-8"?>
<svg width="28px" height="28px" viewBox="0 0 28 28" version="1.1" xmlns="http://www.w3.org/2000/svg" xmlns:xlink="http://www.w3.org/1999/xlink">
    <!-- Generator: Sketch 55.1 (78136) - https://sketchapp.com -->
    <title>发送</title>
    <desc>Created with Sketch.</desc>
    <g id="页面1" stroke="none" stroke-width="1" fill="none" fill-rule="evenodd">
        <g id="发送" fill="#75777A">
            <path d="M1.07350995,9.63161828 C0.437305091,9.87770579 0.0132007092,10.4838288 0.000302279745,11.165429 C-0.0125961497,11.8470293 0.388272984,12.4687419 1.01471252,12.7386897 L10.968277,17.0194814 L15.2688889,26.9856121 C15.5391456,27.6123212 16.1621553,28.0131794 16.8449252,27.9996688 C17.527695,27.9861581 18.1343358,27.5609675 18.3795528,26.9240583 L27.8879367,2.28152688 C28.1265255,1.66175574 27.9771017,0.959692389 27.506763,0.490593267 C27.0364243,0.0214941458 26.3335779,-0.126466492 25.7138319,0.113152003 L1.07350995,9.63161828 Z M16.963623,25.2304687 L13.6538086,17.6184082 L12.878737,15.7849799 C12.5284421,15.1766118 11.9758334,14.6973059 11.3084034,14.4229489 L2.64055389,10.8563933 L25.6405539,2.35813079 L16.963623,25.2304687 Z" id="形状" fill-rule="nonzero"></path>
            <rect id="矩形" transform="translate(14.000000, 13.500000) rotate(-315.000000) translate(-14.000000, -13.500000) " x="13" y="10" width="2" height="7" rx="1"></rect>
        </g>
    </g>
</svg>