<?xml version="1.0" encoding="UTF-8"?>
<svg width="25px" height="30px" viewBox="0 0 25 30" version="1.1" xmlns="http://www.w3.org/2000/svg" xmlns:xlink="http://www.w3.org/1999/xlink">
    <!-- Generator: Sketch 55.1 (78136) - https://sketchapp.com -->
    <title>上传附件选中</title>
    <desc>Created with Sketch.</desc>
    <g id="页面1" stroke="none" stroke-width="1" fill="none" fill-rule="evenodd">
        <g id="上传附件选中" transform="translate(1.000000, 1.000000)">
            <path d="M1.98813266,0 C6.58761532,0 11.6060563,0.00431026898 17.0434556,0.0129308069 C21.0144852,6.01798214 23,9.02050781 23,9.02050781 C23,12.9025169 23,17.1374721 23,25.7253735 C23,27.5176027 22.6254883,28 21.0292969,28 C19.4331055,28 3.51647949,28 2.02941895,28 C0.542358398,28 0,27.4932622 0,25.7239501 C0,24.2860029 0,16.5140859 0,2.4083173 C0,0.503353231 0.388305664,0 1.98813266,0 Z" id="矩形" stroke="#017A61" stroke-width="2" fill-rule="nonzero"></path>
            <path d="M17,1 C17,3.89437866 17,5.70565796 17,6.43383789 C17,7.53008686 17.1947021,8.1782074 17.5509186,8.51411438 C17.907135,8.85002136 18.1790178,8.99942017 19.0041351,8.99942017 C19.7115122,8.99942017 21.0434316,8.99942017 22.9998932,8.99942017" id="路径-2" stroke="#017A61" stroke-width="2" stroke-linecap="round" stroke-linejoin="round"></path>
            <path d="M14.2556365,11.8510649 C15.3139149,10.7446021 17.0195189,10.7130421 18.1145376,11.779661 C19.2095563,12.8462799 19.3010359,14.6283152 18.3215088,15.8114868 L18.1858686,15.9626924 L11.6339995,22.8169556 C10.1444079,24.3652423 7.7492696,24.3979151 6.2215948,22.8907878 C4.69391999,21.3836605 4.5847552,18.8803679 5.97491007,17.233982 L6.13056283,17.0595141 L11.6339995,11.3020725 C11.8369791,11.0858327 12.1646704,11.0689209 12.3870088,11.2632105 C12.6093472,11.4575001 12.6517863,11.7978489 12.4845306,12.0453058 L12.4200459,12.1255611 L6.91660923,17.8830027 C5.858961,18.9901247 5.8287934,20.7744489 6.84835553,21.9200069 C7.86791765,23.065565 9.57133373,23.1612668 10.7023065,22.1365307 L10.8479531,21.9946301 L17.3998222,15.14153 C18.0356101,14.4861014 18.0653719,13.4231645 17.4673459,12.7299273 C16.86932,12.03669 15.8555603,11.9589672 15.167317,12.5535891 L15.0405711,12.6733904 L8.48981384,19.5276537 C8.28566057,19.7402771 8.27059268,20.0808304 8.45509807,20.3122741 C8.63960346,20.5437178 8.96254672,20.5893636 9.19914568,20.4174401 L9.27586025,20.3499792 L14.7792969,14.5925376 C14.9825398,14.3789618 15.3080687,14.3631985 15.5293017,14.5562195 C15.7505346,14.7492406 15.7941666,15.0870889 15.629828,15.3346078 L15.5653433,15.4160262 L10.0619067,21.1734678 C9.43430173,21.8324132 8.4229005,21.8603531 7.76292821,21.236977 C7.10295592,20.6136008 7.02654944,19.5581732 7.58925148,18.8379238 L7.70376744,18.7053282 L14.2545247,11.8510649 L14.2556365,11.8510649 Z" id="路径" fill="#017A61" fill-rule="nonzero"></path>
        </g>
    </g>
</svg>