<?xml version="1.0" encoding="UTF-8"?>
<svg width="25px" height="25px" viewBox="0 0 25 25" version="1.1" xmlns="http://www.w3.org/2000/svg" xmlns:xlink="http://www.w3.org/1999/xlink">
    <!-- Generator: Sketch 55.1 (78136) - https://sketchapp.com -->
    <title>对话</title>
    <desc>Created with Sketch.</desc>
    <g id="页面1" stroke="none" stroke-width="1" fill="none" fill-rule="evenodd">
        <g id="对话" transform="translate(1.000000, 0.000000)">
            <path d="M3,5 L3,3.04016113 C3,0.901656333 3.83775531,1.77635684e-15 6,1.77635684e-15 L21.015625,1.77635684e-15 C23.1720905,1.77635684e-15 24,0.894250096 24,3.04016113 L24,15 C23.9987058,17.1429505 23.1755197,17.9941406 21.015625,17.9941406 C19.714375,17.9941406 19.06375,17.928816 19.06375,17.7981667 C19.06375,17.1893762 18.8152865,12.9233206 18.3183594,5 C17.8100586,5 3,5.24182129 3,5 Z M20.6416961,2 L6.38949585,2 C5.3340698,2 5,2.33574761 5,3.37191963 L5,4.33335277 C5,5.36941205 5.33350365,5.7043457 6.39025553,5.70434599 L9.42504377,5.70665203 C9.7843522,5.70653815 18.6509386,5.70350046 18.6921387,5.70434599 C17.8434146,12.3836051 17.8434146,15.8154898 18.6921387,16 C18.6921387,16 19.3419912,16 20.6416961,16 C21.5468093,15.7990661 21.9995773,15.3487487 22,14.6490479 L22,3.39986038 C22,2.33997353 21.6741549,2 20.6416961,2 Z" id="形状结合" fill="#656D77" fill-rule="nonzero"></path>
            <path d="M17.0385742,5 C18.6621242,5 19,5.43599506 19,7.00854492 L19,18.998291 C18.99905,20.5713052 18.6635492,21.0223601 17.0385742,21.0223601 L13.9260851,21.0223601 C13.6159101,21.0223601 13.2999171,20.9684068 13.0814171,21.1819801 L10.3493652,23.6809082 C9.90001524,24.1173407 9.17136523,24.1256979 8.71299024,23.6985512 L5.95964241,21.2686291 C5.74160968,21.0658584 5.72631417,21.024571 5.42536071,21.0246664 L2.02685547,21.0223601 C0.403305477,21.0223601 0,20.5713052 0,18.998291 L0,7.00854492 C0,5.43599506 0.403305455,5 2.02685547,5 L17.0385742,5 Z" id="形状结合" stroke="#656D77" stroke-width="2" fill-rule="nonzero"></path>
            <circle id="椭圆形" fill="#656D77" cx="7" cy="13" r="1"></circle>
            <circle id="椭圆形备份-7" fill="#656D77" cx="10" cy="13" r="1"></circle>
            <circle id="椭圆形备份-8" fill="#656D77" cx="13" cy="13" r="1"></circle>
        </g>
    </g>
</svg>