<?xml version="1.0" encoding="UTF-8"?>
<svg width="20px" height="28px" viewBox="0 0 20 28" version="1.1" xmlns="http://www.w3.org/2000/svg" xmlns:xlink="http://www.w3.org/1999/xlink">
    <!-- Generator: Sketch 55.1 (78136) - https://sketchapp.com -->
    <title>语音</title>
    <desc>Created with Sketch.</desc>
    <g id="页面1" stroke="none" stroke-width="1" fill="none" fill-rule="evenodd">
        <g id="语音" fill="#75777A" fill-rule="nonzero">
            <path d="M20,12.2483521 C20,12.1108521 19.8875,11.9983521 19.75,11.9983521 L18.27771,11.9983521 C18.14021,11.9983521 18.02771,12.1108521 18.02771,12.2483521 C18.02771,16.6327271 14.4023193,19.9973907 10.0179443,19.9973907 C5.63356934,19.9973907 1.99760437,16.6597656 1.99760437,12.2753906 C1.99760437,12.1378906 1.87929077,11.9983521 1.74179077,11.9983521 L0.24961853,11.9983521 C0.11211853,11.9983521 1.0658141e-14,12.1378906 1.0658141e-14,12.2753906 C1.0658141e-14,17.5472656 3.90093689,21.3841919 9.00718689,21.9998169 L9.00718689,25.9964447 L5,25.9964447 C4.571875,25.9964447 4.00340271,25.97164 4.00340271,26.524765 L4.00340271,27.480957 C4.00340271,27.8798523 4.75518799,28 5,28 L15.0102539,28 C15.1165039,28 15.9903259,27.8835449 15.9903259,27.480957 L15.9903259,26.486969 C15.9168701,26.101593 15.4383789,25.9964447 15.0102539,25.9964447 L10.9793091,25.9964447 L11.0049438,21.9998169 C16.1705688,21.4373169 20,17.5639771 20,12.2483521 Z" id="路径"></path>
            <path d="M9.99520874,17.0029297 C12.9295837,17.0029297 14.9943848,14.8983521 14.9943848,11.9983521 L14.9943848,4.99835205 C14.9943848,2.09835205 12.9295837,0 9.99520874,0 C7.06083374,0 4.99603271,2.09835205 4.99603271,4.99835205 L4.99603271,11.9983521 C4.99603271,14.8983521 7.06083374,17.0029297 9.99520874,17.0029297 Z M7,4.93137255 C7,3.31911765 8.33723404,2 10,2 C11.662766,2 13,3.31911765 13,4.93137255 L13,12.0686275 C13,13.6808824 11.662766,15 10,15 C8.33723404,15 7,13.6808824 7,12.0686275 L7,4.93137255 Z" id="形状"></path>
        </g>
    </g>
</svg>