<?xml version="1.0" encoding="UTF-8"?>
<svg width="24px" height="24px" viewBox="0 0 24 24" version="1.1" xmlns="http://www.w3.org/2000/svg" xmlns:xlink="http://www.w3.org/1999/xlink">
    <!-- Generator: Sketch 55.1 (78136) - https://sketchapp.com -->
    <title>欢迎</title>
    <desc>Created with Sketch.</desc>
    <g id="页面1" stroke="none" stroke-width="1" fill="none" fill-rule="evenodd">
        <g id="欢迎" fill="#656D77" fill-rule="nonzero">
            <path d="M20.5276732,3.57236286 L20.4676749,3.51236099 C15.7908066,-1.17678526 8.20102041,-1.16478489 3.5121525,3.51236099 C-1.17671541,8.18950687 -1.16471575,15.7947441 3.5121525,20.4748901 C5.76508904,22.7399607 8.81000326,24 12.0019133,24 L20.9476613,24 C21.4516471,24 21.8716353,23.5919873 21.8716353,23.0759712 L21.8716353,18.8188384 C22.5316167,17.8588085 23.0476022,16.8267763 23.4195917,15.7227418 C24.7965529,11.4536087 23.6805843,6.76446242 20.5276732,3.57236286 Z M10.9699424,16.8267763 L11.7019218,12.9416551 L8.3330167,12.9416551 L7.58903765,16.8267763 L5.60909343,16.8267763 L7.37304374,7.57748778 L9.35298796,7.57748778 L8.66600732,11.1896004 L12.0469121,11.1896004 L12.7428925,7.58048788 L14.7228367,7.58048788 L12.9588864,16.8267763 L10.9699424,16.8267763 Z M16.7027809,16.8267763 L14.7228367,16.8267763 L16.0068005,10.1095668 L17.9867447,10.1095668 L16.7027809,16.8267763 L16.7027809,16.8267763 Z M18.0677425,8.98153157 C17.8397489,9.19753831 17.5397573,9.30554168 17.2397658,9.28154093 C16.73578,9.30554168 16.3037922,8.9215297 16.2797928,8.41751398 L16.2797928,8.32151099 C16.2797928,8.02150163 16.3997895,7.73349265 16.6157834,7.51748591 C16.8317773,7.30147917 17.1197692,7.19347581 17.4197607,7.19347581 C17.9357462,7.15747468 18.3797337,7.55348703 18.4157327,8.06950313 L18.4157327,8.16550612 C18.4157327,8.46551548 18.2837364,8.76552484 18.0677425,8.98153157 L18.0677425,8.98153157 Z" id="形状"></path>
        </g>
    </g>
</svg>